<svg width="24" height="24" viewBox="0 0 24 24" fill="none" xmlns="http://www.w3.org/2000/svg">
<path fill-rule="evenodd" clip-rule="evenodd" d="M12 8.25988C12.4225 8.25988 12.765 8.59497 12.765 9.00832V13C12.765 13.4134 12.4225 13.7484 12 13.7484C11.5775 13.7484 11.235 13.4134 11.235 13V10.9114V9.00832C11.235 8.59497 11.5775 8.25988 12 8.25988Z" fill="black"/>
<path d="M13.02 17.2599C13.02 17.811 12.5633 18.2578 12 18.2578C11.4367 18.2578 10.98 17.811 10.98 17.2599C10.98 16.7087 11.4367 16.262 12 16.262C12.5633 16.262 13.02 16.7087 13.02 17.2599Z" fill="black"/>
<path fill-rule="evenodd" clip-rule="evenodd" d="M9.73186 3.17694C10.8275 1.60769 13.1725 1.60769 14.2681 3.17694C15.6268 5.12286 17.5498 7.95345 18.8364 10.173C20.187 12.5029 21.7247 15.692 22.7478 17.8901C23.5531 19.6202 22.3381 21.5812 20.4028 21.6936C18.0184 21.832 14.5926 22 12 22C9.40736 22 5.9816 21.832 3.59722 21.6936C1.66188 21.5812 0.446864 19.6202 1.25219 17.8901C2.27534 15.692 3.81301 12.5029 5.16358 10.173C6.45017 7.95345 8.37321 5.12286 9.73186 3.17694ZM13.0048 4.02126C12.5166 3.32209 11.4834 3.32209 10.9952 4.02126C9.63834 5.96467 7.74692 8.75074 6.49445 10.9114C5.17998 13.179 3.66613 16.3158 2.6446 18.5105C2.28634 19.2801 2.8205 20.149 3.68783 20.1993C6.0696 20.3375 9.45631 20.5031 12 20.5031C14.5437 20.5031 17.9304 20.3375 20.3122 20.1993C21.1795 20.149 21.7137 19.2801 21.3554 18.5105C20.3339 16.3158 18.82 13.179 17.5055 10.9114C16.2531 8.75074 14.3617 5.96467 13.0048 4.02126Z" fill="black"/>
<path d="M12.765 9.00832L13.015 9.00832V9.00832L12.765 9.00832ZM12.765 13L12.515 13V13L12.765 13ZM11.235 13L10.985 13V13L11.235 13ZM11.235 9.00832L11.485 9.00832V9.00832L11.235 9.00832ZM14.2681 3.17694L14.4731 3.03382L14.4731 3.03382L14.2681 3.17694ZM9.73186 3.17694L9.93684 3.32006L9.93684 3.32006L9.73186 3.17694ZM18.8364 10.173L18.6201 10.2983L18.6201 10.2983L18.8364 10.173ZM22.7478 17.8901L22.9745 17.7846L22.9745 17.7846L22.7478 17.8901ZM20.4028 21.6936L20.3883 21.444L20.3883 21.444L20.4028 21.6936ZM3.59722 21.6936L3.6117 21.444L3.6117 21.444L3.59722 21.6936ZM1.25219 17.8901L1.47884 17.9956L1.47884 17.9956L1.25219 17.8901ZM5.16358 10.173L5.37987 10.2983L5.37987 10.2983L5.16358 10.173ZM10.9952 4.02126L11.2002 4.16438L11.2002 4.16438L10.9952 4.02126ZM13.0048 4.02126L12.7998 4.16438L12.7998 4.16438L13.0048 4.02126ZM6.49445 10.9114L6.71074 11.0368L6.71074 11.0368L6.49445 10.9114ZM2.6446 18.5105L2.41795 18.405L2.41795 18.405L2.6446 18.5105ZM3.68783 20.1993L3.67334 20.4489L3.67334 20.4489L3.68783 20.1993ZM20.3122 20.1993L20.2977 19.9497L20.2977 19.9497L20.3122 20.1993ZM21.3554 18.5105L21.5821 18.405L21.582 18.405L21.3554 18.5105ZM17.5055 10.9114L17.2893 11.0368L17.2893 11.0368L17.5055 10.9114ZM13.015 9.00832C13.015 8.45177 12.5554 8.00988 12 8.00988L12 8.50988C12.2896 8.50988 12.515 8.73817 12.515 9.00832L13.015 9.00832ZM13.015 13V9.00832H12.515V13H13.015ZM12 13.9984C12.5554 13.9984 13.015 13.5566 13.015 13L12.515 13C12.515 13.2702 12.2896 13.4984 12 13.4984L12 13.9984ZM10.985 13C10.985 13.5566 11.4446 13.9984 12 13.9984L12 13.4984C11.7104 13.4984 11.485 13.2702 11.485 13L10.985 13ZM12 8.00988C11.4446 8.00988 10.985 8.45177 10.985 9.00832L11.485 9.00832C11.485 8.73817 11.7104 8.50988 12 8.50988L12 8.00988ZM12.77 17.2599C12.77 17.6678 12.4304 18.0078 12 18.0078V18.5078C12.6962 18.5078 13.27 17.9542 13.27 17.2599H12.77ZM12 18.0078C11.5696 18.0078 11.23 17.6678 11.23 17.2599H10.73C10.73 17.9542 11.3038 18.5078 12 18.5078V18.0078ZM11.23 17.2599C11.23 16.8519 11.5696 16.512 12 16.512V16.012C11.3038 16.012 10.73 16.5655 10.73 17.2599H11.23ZM12 16.512C12.4304 16.512 12.77 16.8519 12.77 17.2599H13.27C13.27 16.5655 12.6962 16.012 12 16.012V16.512ZM14.4731 3.03382C13.278 1.32206 10.722 1.32206 9.52688 3.03382L9.93684 3.32006C10.933 1.89331 13.067 1.89331 14.0632 3.32006L14.4731 3.03382ZM19.0527 10.0476C17.7604 7.8182 15.8321 4.98015 14.4731 3.03382L14.0632 3.32006C15.4215 5.26556 17.3393 8.0887 18.6201 10.2983L19.0527 10.0476ZM22.9745 17.7846C21.951 15.5859 20.4094 12.3879 19.0527 10.0476L18.6201 10.2983C19.9646 12.6178 21.4983 15.7981 22.5212 17.9956L22.9745 17.7846ZM20.4173 21.9431C22.5201 21.8211 23.8579 19.6827 22.9745 17.7846L22.5212 17.9956C23.2483 19.5578 22.1561 21.3414 20.3883 21.444L20.4173 21.9431ZM12 22.25C14.6005 22.25 18.0325 22.0816 20.4173 21.9431L20.3883 21.444C18.0043 21.5823 14.5848 21.75 12 21.75V22.25ZM3.58273 21.9431C5.96753 22.0816 9.39953 22.25 12 22.25V21.75C9.41518 21.75 5.99566 21.5823 3.6117 21.444L3.58273 21.9431ZM1.02554 17.7846C0.142053 19.6827 1.47986 21.8211 3.58273 21.9431L3.6117 21.444C1.84391 21.3414 0.751675 19.5578 1.47884 17.9956L1.02554 17.7846ZM4.9473 10.0476C3.59065 12.3879 2.04897 15.5859 1.02554 17.7846L1.47884 17.9956C2.50171 15.7981 4.03536 12.6178 5.37987 10.2983L4.9473 10.0476ZM9.52688 3.03382C8.16794 4.98015 6.2396 7.8182 4.9473 10.0476L5.37987 10.2983C6.66073 8.0887 8.57848 5.26556 9.93684 3.32006L9.52688 3.03382ZM11.2002 4.16438C11.5889 3.60771 12.4111 3.60771 12.7998 4.16438L13.2097 3.87814C12.6221 3.03646 11.3779 3.03646 10.7903 3.87814L11.2002 4.16438ZM6.71074 11.0368C7.95748 8.886 9.8436 6.10739 11.2002 4.16438L10.7903 3.87814C9.43307 5.82196 7.53635 8.61549 6.27816 10.786L6.71074 11.0368ZM2.87125 18.616C3.8925 16.4219 5.40234 13.2939 6.71074 11.0368L6.27816 10.786C4.95762 13.0641 3.43976 16.2097 2.41795 18.405L2.87125 18.616ZM3.70232 19.9497C3.00289 19.9091 2.591 19.2181 2.87125 18.616L2.41795 18.405C1.98168 19.3422 2.6381 20.3888 3.67334 20.4489L3.70232 19.9497ZM12 20.2531C9.46414 20.2531 6.08367 20.0879 3.70232 19.9497L3.67334 20.4489C6.05553 20.5872 9.44849 20.7531 12 20.7531V20.2531ZM20.2977 19.9497C17.9163 20.0879 14.5359 20.2531 12 20.2531V20.7531C14.5515 20.7531 17.9445 20.5872 20.3267 20.4489L20.2977 19.9497ZM21.1287 18.616C21.409 19.2181 20.9971 19.9091 20.2977 19.9497L20.3267 20.4489C21.3619 20.3888 22.0183 19.3422 21.5821 18.405L21.1287 18.616ZM17.2893 11.0368C18.5977 13.2939 20.1075 16.4219 21.1288 18.616L21.582 18.405C20.5602 16.2097 19.0424 13.0641 17.7218 10.786L17.2893 11.0368ZM12.7998 4.16438C14.1564 6.10739 16.0425 8.886 17.2893 11.0368L17.7218 10.786C16.4636 8.61549 14.5669 5.82196 13.2097 3.87814L12.7998 4.16438ZM10.985 9.00832V10.9114H11.485V9.00832H10.985ZM10.985 10.9114V13H11.485V10.9114H10.985Z" fill="black"/>
</svg>

